<?xml version="1.0" encoding="UTF-8" standalone="no"?><svg xmlns="http://www.w3.org/2000/svg" xmlns:xlink="http://www.w3.org/1999/xlink" contentScriptType="application/ecmascript" contentStyleType="text/css" height="553px" preserveAspectRatio="none" style="width:381px;height:553px;" version="1.1" viewBox="0 0 381 553" width="381px" zoomAndPan="magnify"><defs><filter height="300%" id="f1jtsml1dshdzc" width="300%" x="-1" y="-1"><feGaussianBlur result="blurOut" stdDeviation="2.0"/><feColorMatrix in="blurOut" result="blurOut2" type="matrix" values="0 0 0 0 0 0 0 0 0 0 0 0 0 0 0 0 0 0 .4 0"/><feOffset dx="4.0" dy="4.0" in="blurOut2" result="blurOut3"/><feBlend in="SourceGraphic" in2="blurOut3" mode="normal"/></filter></defs><g><!--MD5=[3fd616f346a44cd59a91eb10b19e157c]
class User--><rect fill="#FEFECE" filter="url(#f1jtsml1dshdzc)" height="92.7969" id="User" style="stroke: #A80036; stroke-width: 1.5;" width="119" x="17" y="27"/><ellipse cx="32" cy="46.0625" fill="#ADD1B2" rx="11" ry="11" style="stroke: #A80036; stroke-width: 1.0;"/><path d="M32.0469,52.2656 C33.5469,52.2656 34.7813,51.7031 35.6875,50.6406 L34.3125,49.125 C33.7656,49.7188 33.1094,50.1094 32.3125,50.1094 C30.6406,50.1094 29.4844,48.7813 29.4844,46.5 C29.4844,44.2813 30.6406,42.9375 32.2031,42.9375 C33.0156,42.9375 33.6094,43.25 34.1406,43.7344 L35.5156,42.1875 C34.7656,41.4531 33.6094,40.7813 32.2031,40.7813 C29.25,40.7813 26.9219,42.9219 26.9219,46.5938 C26.9219,50.3125 29.2969,52.2656 32.0469,52.2656 Z "/><text fill="#000000" font-family="sans-serif" font-size="12" font-style="italic" lengthAdjust="spacingAndGlyphs" textLength="91" x="44" y="43.1328">«Пользователь»</text><text fill="#000000" font-family="sans-serif" font-size="12" lengthAdjust="spacingAndGlyphs" textLength="25" x="77" y="57.1953">User</text><line style="stroke: #A80036; stroke-width: 1.5;" x1="18" x2="135" y1="65.125" y2="65.125"/><polygon fill="none" points="28,71.125,32,75.125,28,79.125,24,75.125" style="stroke: #B38D22; stroke-width: 1.0;"/><text fill="#000000" font-family="sans-serif" font-size="11" lengthAdjust="spacingAndGlyphs" textLength="10" x="37" y="79.3301">id</text><polygon fill="none" points="28,84.0156,32,88.0156,28,92.0156,24,88.0156" style="stroke: #B38D22; stroke-width: 1.0;"/><text fill="#000000" font-family="sans-serif" font-size="11" lengthAdjust="spacingAndGlyphs" textLength="28" x="37" y="92.2207">code</text><ellipse cx="28" cy="101.9063" fill="none" rx="3" ry="3" style="stroke: #038048; stroke-width: 1.0;"/><text fill="#000000" font-family="sans-serif" font-size="11" lengthAdjust="spacingAndGlyphs" textLength="32" x="37" y="105.1113">name</text><line style="stroke: #A80036; stroke-width: 1.5;" x1="18" x2="135" y1="111.7969" y2="111.7969"/><!--MD5=[50d4997affe4b7e1b12b08ba12feba96]
class Chat--><rect fill="#FEFECE" filter="url(#f1jtsml1dshdzc)" height="131.4688" id="Chat" style="stroke: #A80036; stroke-width: 1.5;" width="72" x="220.5" y="8"/><ellipse cx="240.9" cy="27.0625" fill="#ADD1B2" rx="11" ry="11" style="stroke: #A80036; stroke-width: 1.0;"/><path d="M240.9469,33.2656 C242.4469,33.2656 243.6813,32.7031 244.5875,31.6406 L243.2125,30.125 C242.6656,30.7188 242.0094,31.1094 241.2125,31.1094 C239.5406,31.1094 238.3844,29.7813 238.3844,27.5 C238.3844,25.2813 239.5406,23.9375 241.1031,23.9375 C241.9156,23.9375 242.5094,24.25 243.0406,24.7344 L244.4156,23.1875 C243.6656,22.4531 242.5094,21.7813 241.1031,21.7813 C238.15,21.7813 235.8219,23.9219 235.8219,27.5938 C235.8219,31.3125 238.1969,33.2656 240.9469,33.2656 Z "/><text fill="#000000" font-family="sans-serif" font-size="12" font-style="italic" lengthAdjust="spacingAndGlyphs" textLength="32" x="254.1" y="24.1328">«Чат»</text><text fill="#000000" font-family="sans-serif" font-size="12" lengthAdjust="spacingAndGlyphs" textLength="26" x="257.1" y="38.1953">Chat</text><line style="stroke: #A80036; stroke-width: 1.5;" x1="221.5" x2="291.5" y1="46.125" y2="46.125"/><polygon fill="none" points="231.5,52.125,235.5,56.125,231.5,60.125,227.5,56.125" style="stroke: #B38D22; stroke-width: 1.0;"/><text fill="#000000" font-family="sans-serif" font-size="11" lengthAdjust="spacingAndGlyphs" textLength="10" x="240.5" y="60.3301">id</text><polygon fill="none" points="231.5,65.0156,235.5,69.0156,231.5,73.0156,227.5,69.0156" style="stroke: #B38D22; stroke-width: 1.0;"/><text fill="#000000" font-family="sans-serif" font-size="11" lengthAdjust="spacingAndGlyphs" textLength="17" x="240.5" y="73.2207">uid</text><polygon fill="none" points="231.5,77.9063,235.5,81.9063,231.5,85.9063,227.5,81.9063" style="stroke: #B38D22; stroke-width: 1.0;"/><text fill="#000000" font-family="sans-serif" font-size="11" lengthAdjust="spacingAndGlyphs" textLength="28" x="240.5" y="86.1113">code</text><ellipse cx="231.5" cy="95.7969" fill="none" rx="3" ry="3" style="stroke: #038048; stroke-width: 1.0;"/><text fill="#000000" font-family="sans-serif" font-size="11" lengthAdjust="spacingAndGlyphs" textLength="32" x="240.5" y="99.002">name</text><ellipse cx="231.5" cy="108.6875" fill="none" rx="3" ry="3" style="stroke: #038048; stroke-width: 1.0;"/><text fill="#000000" font-family="sans-serif" font-size="11" lengthAdjust="spacingAndGlyphs" textLength="46" x="240.5" y="111.8926">begDate</text><ellipse cx="231.5" cy="121.5781" fill="none" rx="3" ry="3" style="stroke: #038048; stroke-width: 1.0;"/><text fill="#000000" font-family="sans-serif" font-size="11" lengthAdjust="spacingAndGlyphs" textLength="46" x="240.5" y="124.7832">endDate</text><line style="stroke: #A80036; stroke-width: 1.5;" x1="221.5" x2="291.5" y1="131.4688" y2="131.4688"/><!--MD5=[031037697a9069963dd26ac19157fc89]
class ChatMemberRole--><rect fill="#FEFECE" filter="url(#f1jtsml1dshdzc)" height="92.7969" id="ChatMemberRole" style="stroke: #A80036; stroke-width: 1.5;" width="126" x="37.5" y="437"/><ellipse cx="52.5" cy="456.0625" fill="#ADD1B2" rx="11" ry="11" style="stroke: #A80036; stroke-width: 1.0;"/><path d="M52.5469,462.2656 C54.0469,462.2656 55.2813,461.7031 56.1875,460.6406 L54.8125,459.125 C54.2656,459.7188 53.6094,460.1094 52.8125,460.1094 C51.1406,460.1094 49.9844,458.7813 49.9844,456.5 C49.9844,454.2813 51.1406,452.9375 52.7031,452.9375 C53.5156,452.9375 54.1094,453.25 54.6406,453.7344 L56.0156,452.1875 C55.2656,451.4531 54.1094,450.7813 52.7031,450.7813 C49.75,450.7813 47.4219,452.9219 47.4219,456.5938 C47.4219,460.3125 49.7969,462.2656 52.5469,462.2656 Z "/><text fill="#000000" font-family="sans-serif" font-size="12" font-style="italic" lengthAdjust="spacingAndGlyphs" textLength="98" x="64.5" y="453.1328">«Роль участника»</text><text fill="#000000" font-family="sans-serif" font-size="12" lengthAdjust="spacingAndGlyphs" textLength="93" x="67" y="467.1953">ChatMemberRole</text><line style="stroke: #A80036; stroke-width: 1.5;" x1="38.5" x2="162.5" y1="475.125" y2="475.125"/><polygon fill="none" points="48.5,481.125,52.5,485.125,48.5,489.125,44.5,485.125" style="stroke: #B38D22; stroke-width: 1.0;"/><text fill="#000000" font-family="sans-serif" font-size="11" lengthAdjust="spacingAndGlyphs" textLength="10" x="57.5" y="489.3301">id</text><ellipse cx="48.5" cy="499.0156" fill="none" rx="3" ry="3" style="stroke: #038048; stroke-width: 1.0;"/><text fill="#000000" font-family="sans-serif" font-size="11" lengthAdjust="spacingAndGlyphs" textLength="28" x="57.5" y="502.2207">code</text><ellipse cx="48.5" cy="511.9063" fill="none" rx="3" ry="3" style="stroke: #038048; stroke-width: 1.0;"/><text fill="#000000" font-family="sans-serif" font-size="11" lengthAdjust="spacingAndGlyphs" textLength="32" x="57.5" y="515.1113">name</text><line style="stroke: #A80036; stroke-width: 1.5;" x1="38.5" x2="162.5" y1="521.7969" y2="521.7969"/><!--MD5=[f927e3ccaff9c000de394084115b4ad1]
class ChatMember--><rect fill="#FEFECE" filter="url(#f1jtsml1dshdzc)" height="131.4688" id="ChatMember" style="stroke: #A80036; stroke-width: 1.5;" width="189" x="6" y="216"/><ellipse cx="53.25" cy="235.0625" fill="#ADD1B2" rx="11" ry="11" style="stroke: #A80036; stroke-width: 1.0;"/><path d="M53.2969,241.2656 C54.7969,241.2656 56.0313,240.7031 56.9375,239.6406 L55.5625,238.125 C55.0156,238.7188 54.3594,239.1094 53.5625,239.1094 C51.8906,239.1094 50.7344,237.7813 50.7344,235.5 C50.7344,233.2813 51.8906,231.9375 53.4531,231.9375 C54.2656,231.9375 54.8594,232.25 55.3906,232.7344 L56.7656,231.1875 C56.0156,230.4531 54.8594,229.7813 53.4531,229.7813 C50.5,229.7813 48.1719,231.9219 48.1719,235.5938 C48.1719,239.3125 50.5469,241.2656 53.2969,241.2656 Z "/><text fill="#000000" font-family="sans-serif" font-size="12" font-style="italic" lengthAdjust="spacingAndGlyphs" textLength="90" x="71.75" y="232.1328">«Участник чата»</text><text fill="#000000" font-family="sans-serif" font-size="12" lengthAdjust="spacingAndGlyphs" textLength="69" x="82.25" y="246.1953">ChatMember</text><line style="stroke: #A80036; stroke-width: 1.5;" x1="7" x2="194" y1="254.125" y2="254.125"/><polygon fill="none" points="17,260.125,21,264.125,17,268.125,13,264.125" style="stroke: #B38D22; stroke-width: 1.0;"/><text fill="#000000" font-family="sans-serif" font-size="11" lengthAdjust="spacingAndGlyphs" textLength="10" x="26" y="268.3301">id</text><ellipse cx="17" cy="278.0156" fill="none" rx="3" ry="3" style="stroke: #038048; stroke-width: 1.0;"/><text fill="#000000" font-family="sans-serif" font-size="11" lengthAdjust="spacingAndGlyphs" textLength="55" x="26" y="281.2207">user: User</text><ellipse cx="17" cy="290.9063" fill="none" rx="3" ry="3" style="stroke: #038048; stroke-width: 1.0;"/><text fill="#000000" font-family="sans-serif" font-size="11" lengthAdjust="spacingAndGlyphs" textLength="54" x="26" y="294.1113">chat: Chat</text><ellipse cx="17" cy="303.7969" fill="none" rx="3" ry="3" style="stroke: #038048; stroke-width: 1.0;"/><text fill="#000000" font-family="sans-serif" font-size="11" lengthAdjust="spacingAndGlyphs" textLength="163" x="26" y="307.002">role: ChatMemberRole «Роль»</text><ellipse cx="17" cy="316.6875" fill="none" rx="3" ry="3" style="stroke: #038048; stroke-width: 1.0;"/><text fill="#000000" font-family="sans-serif" font-size="11" lengthAdjust="spacingAndGlyphs" textLength="105" x="26" y="319.8926">begDate: DateTime</text><ellipse cx="17" cy="329.5781" fill="none" rx="3" ry="3" style="stroke: #038048; stroke-width: 1.0;"/><text fill="#000000" font-family="sans-serif" font-size="11" lengthAdjust="spacingAndGlyphs" textLength="105" x="26" y="332.7832">endDate: DateTime</text><line style="stroke: #A80036; stroke-width: 1.5;" x1="7" x2="194" y1="339.4688" y2="339.4688"/><!--MD5=[bea5b0d46523efab5ea1c1d339f396f0]
class Message--><rect fill="#FEFECE" filter="url(#f1jtsml1dshdzc)" height="131.4688" id="Message" style="stroke: #A80036; stroke-width: 1.5;" width="104" x="254.5" y="216"/><ellipse cx="269.5" cy="235.0625" fill="#ADD1B2" rx="11" ry="11" style="stroke: #A80036; stroke-width: 1.0;"/><path d="M269.5469,241.2656 C271.0469,241.2656 272.2813,240.7031 273.1875,239.6406 L271.8125,238.125 C271.2656,238.7188 270.6094,239.1094 269.8125,239.1094 C268.1406,239.1094 266.9844,237.7813 266.9844,235.5 C266.9844,233.2813 268.1406,231.9375 269.7031,231.9375 C270.5156,231.9375 271.1094,232.25 271.6406,232.7344 L273.0156,231.1875 C272.2656,230.4531 271.1094,229.7813 269.7031,229.7813 C266.75,229.7813 264.4219,231.9219 264.4219,235.5938 C264.4219,239.3125 266.7969,241.2656 269.5469,241.2656 Z "/><text fill="#000000" font-family="sans-serif" font-size="12" font-style="italic" lengthAdjust="spacingAndGlyphs" textLength="76" x="281.5" y="232.1328">«Сообщение»</text><text fill="#000000" font-family="sans-serif" font-size="12" lengthAdjust="spacingAndGlyphs" textLength="50" x="294.5" y="246.1953">Message</text><line style="stroke: #A80036; stroke-width: 1.5;" x1="255.5" x2="357.5" y1="254.125" y2="254.125"/><polygon fill="none" points="265.5,260.125,269.5,264.125,265.5,268.125,261.5,264.125" style="stroke: #B38D22; stroke-width: 1.0;"/><text fill="#000000" font-family="sans-serif" font-size="11" lengthAdjust="spacingAndGlyphs" textLength="10" x="274.5" y="268.3301">id</text><ellipse cx="265.5" cy="278.0156" fill="none" rx="3" ry="3" style="stroke: #038048; stroke-width: 1.0;"/><text fill="#000000" font-family="sans-serif" font-size="11" lengthAdjust="spacingAndGlyphs" textLength="24" x="274.5" y="281.2207">date</text><ellipse cx="265.5" cy="290.9063" fill="none" rx="3" ry="3" style="stroke: #038048; stroke-width: 1.0;"/><text fill="#000000" font-family="sans-serif" font-size="11" lengthAdjust="spacingAndGlyphs" textLength="66" x="274.5" y="294.1113">author: User</text><ellipse cx="265.5" cy="303.7969" fill="none" rx="3" ry="3" style="stroke: #038048; stroke-width: 1.0;"/><text fill="#000000" font-family="sans-serif" font-size="11" lengthAdjust="spacingAndGlyphs" textLength="18" x="274.5" y="307.002">text</text><ellipse cx="265.5" cy="316.6875" fill="none" rx="3" ry="3" style="stroke: #038048; stroke-width: 1.0;"/><text fill="#000000" font-family="sans-serif" font-size="11" lengthAdjust="spacingAndGlyphs" textLength="74" x="274.5" y="319.8926">attachments[]</text><ellipse cx="265.5" cy="329.5781" fill="none" rx="3" ry="3" style="stroke: #038048; stroke-width: 1.0;"/><text fill="#000000" font-family="sans-serif" font-size="11" lengthAdjust="spacingAndGlyphs" textLength="70" x="274.5" y="332.7832">chatMember</text><line style="stroke: #A80036; stroke-width: 1.5;" x1="255.5" x2="357.5" y1="339.4688" y2="339.4688"/><!--MD5=[028e5a1dffb388095f9b7f9e3d783fca]
class Attachment--><rect fill="#FEFECE" filter="url(#f1jtsml1dshdzc)" height="118.5781" id="Attachment" style="stroke: #A80036; stroke-width: 1.5;" width="96" x="258.5" y="424"/><ellipse cx="273.5" cy="443.0625" fill="#ADD1B2" rx="11" ry="11" style="stroke: #A80036; stroke-width: 1.0;"/><path d="M273.5469,449.2656 C275.0469,449.2656 276.2813,448.7031 277.1875,447.6406 L275.8125,446.125 C275.2656,446.7188 274.6094,447.1094 273.8125,447.1094 C272.1406,447.1094 270.9844,445.7813 270.9844,443.5 C270.9844,441.2813 272.1406,439.9375 273.7031,439.9375 C274.5156,439.9375 275.1094,440.25 275.6406,440.7344 L277.0156,439.1875 C276.2656,438.4531 275.1094,437.7813 273.7031,437.7813 C270.75,437.7813 268.4219,439.9219 268.4219,443.5938 C268.4219,447.3125 270.7969,449.2656 273.5469,449.2656 Z "/><text fill="#000000" font-family="sans-serif" font-size="12" font-style="italic" lengthAdjust="spacingAndGlyphs" textLength="68" x="285.5" y="440.1328">«Вложение»</text><text fill="#000000" font-family="sans-serif" font-size="12" lengthAdjust="spacingAndGlyphs" textLength="64" x="287.5" y="454.1953">Attachment</text><line style="stroke: #A80036; stroke-width: 1.5;" x1="259.5" x2="353.5" y1="462.125" y2="462.125"/><polygon fill="none" points="269.5,468.125,273.5,472.125,269.5,476.125,265.5,472.125" style="stroke: #B38D22; stroke-width: 1.0;"/><text fill="#000000" font-family="sans-serif" font-size="11" lengthAdjust="spacingAndGlyphs" textLength="10" x="278.5" y="476.3301">id</text><ellipse cx="269.5" cy="486.0156" fill="none" rx="3" ry="3" style="stroke: #038048; stroke-width: 1.0;"/><text fill="#000000" font-family="sans-serif" font-size="11" lengthAdjust="spacingAndGlyphs" textLength="24" x="278.5" y="489.2207">date</text><ellipse cx="269.5" cy="498.9063" fill="none" rx="3" ry="3" style="stroke: #038048; stroke-width: 1.0;"/><text fill="#000000" font-family="sans-serif" font-size="11" lengthAdjust="spacingAndGlyphs" textLength="32" x="278.5" y="502.1113">name</text><ellipse cx="269.5" cy="511.7969" fill="none" rx="3" ry="3" style="stroke: #038048; stroke-width: 1.0;"/><text fill="#000000" font-family="sans-serif" font-size="11" lengthAdjust="spacingAndGlyphs" textLength="67" x="278.5" y="515.002">contentType</text><ellipse cx="269.5" cy="524.6875" fill="none" rx="3" ry="3" style="stroke: #038048; stroke-width: 1.0;"/><text fill="#000000" font-family="sans-serif" font-size="11" lengthAdjust="spacingAndGlyphs" textLength="41" x="278.5" y="527.8926">content</text><line style="stroke: #A80036; stroke-width: 1.5;" x1="259.5" x2="353.5" y1="534.5781" y2="534.5781"/><!--MD5=[ef8dc17f1b843e86b4363df76f041a84]
link ChatMember to ChatMemberRole--><path d="M100.5,347.0836 C100.5,376.3446 100.5,410.1465 100.5,436.7825 " fill="none" id="ChatMember-ChatMemberRole" style="stroke: #A80036; stroke-width: 1.0; stroke-dasharray: 7.0,7.0;"/><text fill="#000000" font-family="sans-serif" font-size="13" lengthAdjust="spacingAndGlyphs" textLength="7" x="92.9859" y="425.912">1</text><!--MD5=[9026f06abd0a3aeea367222fbf72d6e0]
reverse link User to ChatMember--><path d="M71.2694,133.244 C70.7552,150.3455 71.1383,168.9655 73.5,186 C74.8605,195.8132 76.972,206.0361 79.4285,215.9895 " fill="none" id="User&lt;-ChatMember" style="stroke: #A80036; stroke-width: 1.0;"/><polygon fill="#A80036" points="71.8364,120.2149,67.5793,126.0353,71.3146,132.2035,75.5717,126.3832,71.8364,120.2149" style="stroke: #A80036; stroke-width: 1.0;"/><text fill="#000000" font-family="sans-serif" font-size="13" lengthAdjust="spacingAndGlyphs" textLength="58" x="74.5" y="182.0605">является</text><polygon fill="#000000" points="99,191.2344,102,197.2344,105,191.2344,99,191.2344" style="stroke: #000000; stroke-width: 1.0;"/><text fill="#000000" font-family="sans-serif" font-size="13" lengthAdjust="spacingAndGlyphs" textLength="7" x="63.6884" y="139.9302">1</text><text fill="#000000" font-family="sans-serif" font-size="13" lengthAdjust="spacingAndGlyphs" textLength="11" x="65.5222" y="205.0517">M</text><!--MD5=[14df2e382d2d89e2948120474526c8b4]
reverse link Chat to ChatMember--><path d="M212.4648,132.2137 C192.9367,158.251 169.8791,188.9945 149.7791,215.7946 " fill="none" id="Chat&lt;-ChatMember" style="stroke: #A80036; stroke-width: 1.0;"/><polygon fill="#A80036" points="220.3184,121.7422,213.5184,124.1422,213.1184,131.3422,219.9184,128.9422,220.3184,121.7422" style="stroke: #A80036; stroke-width: 1.0;"/><text fill="#000000" font-family="sans-serif" font-size="13" lengthAdjust="spacingAndGlyphs" textLength="62" x="184.5" y="182.0605">содержит</text><polygon fill="#000000" points="211,191.2344,214,197.2344,217,191.2344,211,191.2344" style="stroke: #000000; stroke-width: 1.0;"/><text fill="#000000" font-family="sans-serif" font-size="13" lengthAdjust="spacingAndGlyphs" textLength="7" x="205.5061" y="126.8008">1</text><text fill="#000000" font-family="sans-serif" font-size="13" lengthAdjust="spacingAndGlyphs" textLength="11" x="143.5674" y="204.8355">M</text><!--MD5=[d781e152a855b1d821cb2a53917b686c]
reverse link Message to Attachment--><path d="M306.5,360.3449 C306.5,381.4201 306.5,403.8488 306.5,423.7111 " fill="none" id="Message&lt;-Attachment" style="stroke: #A80036; stroke-width: 1.0;"/><polygon fill="#A80036" points="306.5,347.0836,302.5,353.0836,306.5,359.0836,310.5,353.0836,306.5,347.0836" style="stroke: #A80036; stroke-width: 1.0;"/><text fill="#000000" font-family="sans-serif" font-size="13" lengthAdjust="spacingAndGlyphs" textLength="62" x="307.5" y="390.0605">содержит</text><polygon fill="#000000" points="334,399.2344,337,405.2344,340,399.2344,334,399.2344" style="stroke: #000000; stroke-width: 1.0;"/><text fill="#000000" font-family="sans-serif" font-size="13" lengthAdjust="spacingAndGlyphs" textLength="7" x="299.0953" y="367.5809">1</text><text fill="#000000" font-family="sans-serif" font-size="13" lengthAdjust="spacingAndGlyphs" textLength="11" x="294.8641" y="413.0293">M</text><!--MD5=[0e57511ddfa407e901127168a4cd2134]
reverse link Chat to Message--><path d="M275.3549,151.9364 C280.4265,173.0344 285.8579,195.6288 290.7416,215.9451 " fill="none" id="Chat&lt;-Message" style="stroke: #A80036; stroke-width: 1.0;"/><polygon fill="#A80036" points="272.2517,139.027,269.7648,145.7957,275.0564,150.6946,277.5433,143.9259,272.2517,139.027" style="stroke: #A80036; stroke-width: 1.0;"/><text fill="#000000" font-family="sans-serif" font-size="13" lengthAdjust="spacingAndGlyphs" textLength="62" x="284.5" y="182.0605">содержит</text><polygon fill="#000000" points="311,191.2344,314,197.2344,317,191.2344,311,191.2344" style="stroke: #000000; stroke-width: 1.0;"/><text fill="#000000" font-family="sans-serif" font-size="13" lengthAdjust="spacingAndGlyphs" textLength="7" x="266.6683" y="159.5177">1</text><text fill="#000000" font-family="sans-serif" font-size="13" lengthAdjust="spacingAndGlyphs" textLength="11" x="277.4165" y="205.0024">M</text><!--MD5=[1b413010040e38b7538fd2423e9b977f]
@startuml model

  class User<<Пользователь>>{
    # id
    # code
    + name
  }

  class Chat <<Чат>>{
    # id
    # uid
    # code
    + name
    + begDate
    + endDate
  }

  class ChatMemberRole <<Роль участника>>{
    # id
    + code
    + name
  }

  ChatMember .. "1" ChatMemberRole

  class ChatMember<<Участник чата>> {
    # id
    + user: User
    + chat: Chat
    + role: ChatMemberRole <<Роль>>
    + begDate: DateTime
    + endDate: DateTime
  }

  User "1" *- - "M" ChatMember : является >
  Chat "1" *- - "M" ChatMember : содержит >


  class Message <<Сообщение>>{
    # id
    + date
    + author: User
    + text
    + attachments[]
    + chatMember
  }

  class Attachment <<Вложение>>{
    # id
    + date
    + name
    + contentType
    + content
  }

  Message "1" *- - "M" Attachment : содержит >


  Chat "1" *- - "M" Message : содержит >



@enduml

PlantUML version 1.2020.09(Sun May 10 14:51:06 SAMT 2020)
(GPL source distribution)
Java Runtime: OpenJDK Runtime Environment
JVM: OpenJDK 64-Bit Server VM
Java Version: 11.0.10+9-suse-lp152.2.9.1-x8664
Operating System: Linux
Default Encoding: UTF-8
Language: ru
Country: RU
--></g></svg>