<?xml version="1.0" encoding="UTF-8" standalone="no"?><svg xmlns="http://www.w3.org/2000/svg" xmlns:xlink="http://www.w3.org/1999/xlink" contentScriptType="application/ecmascript" contentStyleType="text/css" height="425px" preserveAspectRatio="none" style="width:1461px;height:425px;" version="1.1" viewBox="0 0 1461 425" width="1461px" zoomAndPan="magnify"><defs><filter height="300%" id="fogjw3pufmsyc" width="300%" x="-1" y="-1"><feGaussianBlur result="blurOut" stdDeviation="2.0"/><feColorMatrix in="blurOut" result="blurOut2" type="matrix" values="0 0 0 0 0 0 0 0 0 0 0 0 0 0 0 0 0 0 .4 0"/><feOffset dx="4.0" dy="4.0" in="blurOut2" result="blurOut3"/><feBlend in="SourceGraphic" in2="blurOut3" mode="normal"/></filter></defs><g><!--MD5=[6a3bf63af39c3179cd22a6db35b75f44]
entity Пользователь--><ellipse cx="512.5" cy="17.5" fill="#FEFECE" filter="url(#fogjw3pufmsyc)" rx="8" ry="8" style="stroke: #A80036; stroke-width: 1.5;"/><path d="M512.5,25.5 L512.5,52.5 M499.5,33.5 L525.5,33.5 M512.5,52.5 L499.5,67.5 M512.5,52.5 L525.5,67.5 " fill="none" filter="url(#fogjw3pufmsyc)" style="stroke: #A80036; stroke-width: 1.5;"/><text fill="#000000" font-family="sans-serif" font-size="14" lengthAdjust="spacingAndGlyphs" textLength="96" x="464.5" y="85.9883">Пользователь</text><ellipse cx="512.7427" cy="172.9485" fill="#FEFECE" filter="url(#fogjw3pufmsyc)" rx="90.2427" ry="20.4485" style="stroke: #A80036; stroke-width: 1.5;"/><text fill="#000000" font-family="sans-serif" font-size="14" lengthAdjust="spacingAndGlyphs" textLength="154" x="435.7427" y="177.6517">Смотреть сообещения</text><path d="M6,265 L6,305.4688 A0,0 0 0 0 6,305.4688 L275,305.4688 A0,0 0 0 0 275,305.4688 L275,275 L265,265 L211.0917,265 L458.0096,189.4057 L203.0917,265 L6,265 A0,0 0 0 0 6,265 " fill="#FBFB77" filter="url(#fogjw3pufmsyc)" style="stroke: #A80036; stroke-width: 1.0;"/><path d="M265,265 L265,275 L275,275 L265,265 " fill="#FBFB77" style="stroke: #A80036; stroke-width: 1.0;"/><text fill="#000000" font-family="sans-serif" font-size="13" lengthAdjust="spacingAndGlyphs" textLength="248" x="12" y="282.0605">Пользователь видит список сообщений</text><text fill="#000000" font-family="sans-serif" font-size="13" lengthAdjust="spacingAndGlyphs" textLength="162" x="12" y="297.2949">участников с вложениями</text><ellipse cx="403.3467" cy="285.0693" fill="#FEFECE" filter="url(#fogjw3pufmsyc)" rx="93.3467" ry="21.0693" style="stroke: #A80036; stroke-width: 1.5;"/><text fill="#000000" font-family="sans-serif" font-size="14" lengthAdjust="spacingAndGlyphs" textLength="161" x="322.8467" y="289.7725">Отправить сообещение</text><path d="M230.5,373 L230.5,413.4688 A0,0 0 0 0 230.5,413.4688 L466.5,413.4688 A0,0 0 0 0 466.5,413.4688 L466.5,383 L456.5,373 L362.8355,373 L392.7649,306.0799 L354.8355,373 L230.5,373 A0,0 0 0 0 230.5,373 " fill="#FBFB77" filter="url(#fogjw3pufmsyc)" style="stroke: #A80036; stroke-width: 1.0;"/><path d="M456.5,373 L456.5,383 L466.5,383 L456.5,373 " fill="#FBFB77" style="stroke: #A80036; stroke-width: 1.0;"/><text fill="#000000" font-family="sans-serif" font-size="13" lengthAdjust="spacingAndGlyphs" textLength="212" x="236.5" y="390.0605">Пользователь может отправлять</text><text fill="#000000" font-family="sans-serif" font-size="13" lengthAdjust="spacingAndGlyphs" textLength="159" x="236.5" y="405.2949">сообщения с вложениями</text><ellipse cx="620.4217" cy="285.1843" fill="#FEFECE" filter="url(#fogjw3pufmsyc)" rx="88.9217" ry="20.1843" style="stroke: #A80036; stroke-width: 1.5;"/><text fill="#000000" font-family="sans-serif" font-size="14" lengthAdjust="spacingAndGlyphs" textLength="151" x="544.9217" y="289.8875">Получать сообещения</text><path d="M502,373 L502,413.4688 A0,0 0 0 0 502,413.4688 L739,413.4688 A0,0 0 0 0 739,413.4688 L739,383 L729,373 L624.5,373 L620.5,305.0609 L616.5,373 L502,373 A0,0 0 0 0 502,373 " fill="#FBFB77" filter="url(#fogjw3pufmsyc)" style="stroke: #A80036; stroke-width: 1.0;"/><path d="M729,373 L729,383 L739,383 L729,373 " fill="#FBFB77" style="stroke: #A80036; stroke-width: 1.0;"/><text fill="#000000" font-family="sans-serif" font-size="13" lengthAdjust="spacingAndGlyphs" textLength="186" x="508" y="390.0605">Сообщения других участников</text><text fill="#000000" font-family="sans-serif" font-size="13" lengthAdjust="spacingAndGlyphs" textLength="216" x="508" y="405.2949">полявляются в реальном времени</text><ellipse cx="861.3407" cy="284.9681" fill="#FEFECE" filter="url(#fogjw3pufmsyc)" rx="82.8407" ry="18.9681" style="stroke: #A80036; stroke-width: 1.5;"/><text fill="#000000" font-family="sans-serif" font-size="14" lengthAdjust="spacingAndGlyphs" textLength="137" x="792.8407" y="289.6713">Смотреть вложения</text><path d="M774.5,373 L774.5,413.4688 A0,0 0 0 0 774.5,413.4688 L1016.5,413.4688 A0,0 0 0 0 1016.5,413.4688 L1016.5,383 L1006.5,373 L893.0977,373 L867.5003,304.0596 L885.0977,373 L774.5,373 A0,0 0 0 0 774.5,373 " fill="#FBFB77" filter="url(#fogjw3pufmsyc)" style="stroke: #A80036; stroke-width: 1.0;"/><path d="M1006.5,373 L1006.5,383 L1016.5,383 L1006.5,373 " fill="#FBFB77" style="stroke: #A80036; stroke-width: 1.0;"/><text fill="#000000" font-family="sans-serif" font-size="13" lengthAdjust="spacingAndGlyphs" textLength="221" x="780.5" y="390.0605">Пользователь может просмотреть</text><text fill="#000000" font-family="sans-serif" font-size="13" lengthAdjust="spacingAndGlyphs" textLength="118" x="780.5" y="405.2949">все вложения чата</text><ellipse cx="1242.7369" cy="173.2474" fill="#FEFECE" filter="url(#fogjw3pufmsyc)" rx="109.2369" ry="24.2474" style="stroke: #A80036; stroke-width: 1.5;"/><text fill="#000000" font-family="sans-serif" font-size="14" lengthAdjust="spacingAndGlyphs" textLength="196" x="1144.7369" y="177.9505">Подписываться на сообытия</text><path d="M980,257 L980,312.7031 A0,0 0 0 0 980,312.7031 L1253,312.7031 A0,0 0 0 0 1253,312.7031 L1253,267 L1243,257 L1152.2328,257 L1216.0863,196.4789 L1144.2328,257 L980,257 A0,0 0 0 0 980,257 " fill="#FBFB77" filter="url(#fogjw3pufmsyc)" style="stroke: #A80036; stroke-width: 1.0;"/><path d="M1243,257 L1243,267 L1253,267 L1243,257 " fill="#FBFB77" style="stroke: #A80036; stroke-width: 1.0;"/><text fill="#000000" font-family="sans-serif" font-size="13" lengthAdjust="spacingAndGlyphs" textLength="252" x="986" y="274.0605">Внешняя система может подписываться</text><text fill="#000000" font-family="sans-serif" font-size="13" lengthAdjust="spacingAndGlyphs" textLength="167" x="986" y="289.2949">на интересующие события,</text><text fill="#000000" font-family="sans-serif" font-size="13" lengthAdjust="spacingAndGlyphs" textLength="239" x="986" y="304.5293">например на сообщения с вложениями</text><ellipse cx="1369.6315" cy="285.1263" fill="#FEFECE" filter="url(#fogjw3pufmsyc)" rx="81.1315" ry="18.6263" style="stroke: #A80036; stroke-width: 1.5;"/><text fill="#000000" font-family="sans-serif" font-size="14" lengthAdjust="spacingAndGlyphs" textLength="133" x="1303.1315" y="289.8294">Получать сообытия</text><!--MD5=[9b985dbc59ea59de66a94fb885e6938e]
entity Внешняя система--><ellipse cx="1242.5" cy="17.5" fill="#FEFECE" filter="url(#fogjw3pufmsyc)" rx="8" ry="8" style="stroke: #A80036; stroke-width: 1.5;"/><path d="M1242.5,25.5 L1242.5,52.5 M1229.5,33.5 L1255.5,33.5 M1242.5,52.5 L1229.5,67.5 M1242.5,52.5 L1255.5,67.5 " fill="none" filter="url(#fogjw3pufmsyc)" style="stroke: #A80036; stroke-width: 1.5;"/><text fill="#000000" font-family="sans-serif" font-size="14" lengthAdjust="spacingAndGlyphs" textLength="121" x="1182" y="85.9883">Внешняя система</text><!--MD5=[d385ff02678fefc989e055f594591c75]
link Пользователь to viewMessages--><path d="M512.5,89.266 C512.5,110.3992 512.5,135.2978 512.5,152.4195 " fill="none" id="Пользователь-viewMessages" style="stroke: #A80036; stroke-width: 1.0;"/><!--MD5=[4aa319264f3b51e14eced44d1124efcd]
link viewMessages to sendMessage--><path d="M493.013,193.0234 C474.566,211.9781 446.8382,240.4691 427.1369,260.7125 " fill="none" id="viewMessages-&gt;sendMessage" style="stroke: #A80036; stroke-width: 1.0;"/><polygon fill="#A80036" points="423.5558,264.3922,432.6994,260.7324,427.0431,260.8091,426.9664,255.1527,423.5558,264.3922" style="stroke: #A80036; stroke-width: 1.0;"/><!--MD5=[276c38637d41a8723cc09d71e6da16b1]
link viewMessages to receiveMessages--><path d="M531.8082,193.0234 C550.3145,212.215 578.2477,241.1828 597.8082,261.4677 " fill="none" id="viewMessages-&gt;receiveMessages" style="stroke: #A80036; stroke-width: 1.0;"/><polygon fill="#A80036" points="601.3589,265.15,597.9911,255.8948,597.8882,261.5508,592.2323,261.4479,601.3589,265.15" style="stroke: #A80036; stroke-width: 1.0;"/><!--MD5=[fd0fb4ca824c9cc353967281dedd3b91]
link viewMessages to viewAttachments--><path d="M564.7488,189.7675 C630.2618,210.7918 741.9745,246.6422 808.0475,267.8462 " fill="none" id="viewMessages-&gt;viewAttachments" style="stroke: #A80036; stroke-width: 1.0;"/><polygon fill="#A80036" points="813.117,269.4731,805.7698,262.9143,808.3562,267.9452,803.3252,270.5316,813.117,269.4731" style="stroke: #A80036; stroke-width: 1.0;"/><!--MD5=[dd387d7a1a62c764752456a56b46c032]
link Внешняя система to subscribeEvents--><path d="M1242.5,89.266 C1242.5,108.9809 1242.5,131.9727 1242.5,148.8706 " fill="none" id="Внешняя система-subscribeEvents" style="stroke: #A80036; stroke-width: 1.0;"/><!--MD5=[edb1da20fdcdde49e9e21ab9c377d1a2]
link subscribeEvents to recieveEvents--><path d="M1269.1234,196.4789 C1291.5827,216.2855 1323.4606,244.3983 1345.2279,263.5947 " fill="none" id="subscribeEvents-&gt;recieveEvents" style="stroke: #A80036; stroke-width: 1.0;"/><polygon fill="#A80036" points="1349.1701,267.0713,1345.0658,258.1184,1345.4201,263.7641,1339.7743,264.1184,1349.1701,267.0713" style="stroke: #A80036; stroke-width: 1.0;"/><!--MD5=[f5cc156d1907bbb5fb82e54d1dea3ff3]
@startuml usecases

:Пользователь:


(Смотреть сообещения) as viewMessages
note bottom of viewMessages
  Пользователь видит список сообщений
  участников с вложениями
end note

(Отправить сообещение) as sendMessage
note bottom of sendMessage
    Пользователь может отправлять 
    сообщения с вложениями
end note
(Получать сообещения) as receiveMessages

note bottom of receiveMessages
    Сообщения других участников
    полявляются в реальном времени
end note
(Смотреть вложения) as viewAttachments
note bottom of viewAttachments
    Пользователь может просмотреть
    все вложения чата
end note


(Подписываться на сообытия) as subscribeEvents
note bottom of subscribeEvents
    Внешняя система может подписываться
    на интересующие события,
    например на сообщения с вложениями
end note

(Получать сообытия) as recieveEvents

:Пользователь: 

:Пользователь: - - viewMessages
viewMessages - -> sendMessage
viewMessages - -> receiveMessages
viewMessages - -> viewAttachments

:Внешняя система:

:Внешняя система: - - subscribeEvents
subscribeEvents - -> recieveEvents

@enduml

PlantUML version 1.2020.09(Sun May 10 14:51:06 SAMT 2020)
(GPL source distribution)
Java Runtime: OpenJDK Runtime Environment
JVM: OpenJDK 64-Bit Server VM
Java Version: 11.0.10+9-suse-lp152.2.9.1-x8664
Operating System: Linux
Default Encoding: UTF-8
Language: ru
Country: RU
--></g></svg>